<svg width="393" height="624" viewBox="0 0 393 624" fill="none" xmlns="http://www.w3.org/2000/svg">
<g filter="url(#filter0_d_215_347)">
<path d="M157.136 255.005H203.699L241.648 523.276H118.589L157.136 255.005Z" fill="#93642D"/>
<path d="M156.804 255.005H203.063L223.175 399.397H136.691L156.804 255.005Z" fill="#714D22"/>
<path d="M319.983 374.891C366.402 378.354 335.647 337.038 313.209 300.299C290.771 263.559 242.225 194.447 167.711 194.447C106.651 194.447 -9.05215 356.612 18.0439 371.869C39.7207 384.075 90.604 374.498 124.474 355.285C134.635 372.237 149.977 380.172 174.363 381.529C198.749 382.885 212.972 370.542 232.165 355.285C238.939 360.936 279.486 371.869 319.983 374.891Z" fill="#83C082"/>
<path fill-rule="evenodd" clip-rule="evenodd" d="M311.229 296.188C283.249 255.43 234.881 201.417 166.219 201.417C130.902 201.417 78.7608 251.348 42.1582 300.55C67.0699 298.684 96.6422 289.813 119.242 276.993C130.282 295.411 148.406 314.563 174.901 316.037C201.396 317.51 221.16 298.294 236.246 276.993C242.46 282.176 274.824 291.449 311.229 296.188Z" fill="#458244"/>
<path d="M319.983 281.537C364.408 292.083 335.647 243.685 313.209 206.945C290.771 170.206 242.225 101.094 167.711 101.094C106.651 101.094 -9.05215 263.259 18.0439 278.516C39.7207 290.722 90.604 260.806 124.474 241.592C134.635 258.545 149.977 286.819 174.363 288.175C198.749 289.532 212.972 256.85 232.165 241.592C238.939 247.243 279.486 271.925 319.983 281.537Z" fill="#66A865"/>
<path fill-rule="evenodd" clip-rule="evenodd" d="M290.284 169.185C301.035 186.131 308.905 198.534 307.642 198.44C273.226 195.881 233.322 184.636 227.565 179.85C215.764 196.455 197.635 207.032 176.91 205.883C156.185 204.734 137.275 191.958 128.639 177.6C99.8547 193.873 46.4499 199.929 50.2007 195.463C56.6158 187.825 62.6113 179.385 68.3185 170.513C102.643 129.824 144.447 94.2398 174.261 94.2397C210.283 94.2397 240.719 109.106 265.556 129.125C266.836 131.512 268.121 133.786 269.428 135.92C276.525 147.5 283.91 159.141 290.284 169.185Z" fill="#458244"/>
<path d="M305.632 171.645C337.813 179.832 313.798 137.602 295.576 107.637C277.354 77.6718 241.295 21.498 180.935 18.3222C124.488 15.3523 22.1639 154.735 44.1687 167.18C61.7725 177.135 108.391 157.509 135.897 141.838C144.148 155.665 156.607 178.726 176.412 179.832C196.216 180.938 207.767 154.282 223.353 141.838C228.854 146.447 276.938 164.346 305.632 171.645Z" fill="#83C082"/>
</g>
<g filter="url(#filter1_bf_215_347)">
<rect x="-18" y="481.275" width="393" height="128" fill="url(#paint0_linear_215_347)"/>
</g>
<g opacity="0.5" filter="url(#filter2_f_215_347)">
<circle cx="225.784" cy="107.02" r="4.43214" fill="white"/>
</g>
<g opacity="0.5" filter="url(#filter3_f_215_347)">
<circle cx="193.351" cy="385.303" r="6.82495" transform="rotate(-1.39809 193.351 385.303)" fill="white"/>
</g>
<g opacity="0.5" filter="url(#filter4_f_215_347)">
<circle cx="92.5863" cy="340.99" r="6.53157" fill="white"/>
</g>
<g opacity="0.5" filter="url(#filter5_f_215_347)">
<circle cx="55.9644" cy="249.315" r="2.56598" fill="white"/>
</g>
<g opacity="0.5" filter="url(#filter6_f_215_347)">
<circle cx="149.038" cy="28.4073" r="5.13195" fill="white"/>
</g>
<g opacity="0.5" filter="url(#filter7_f_215_347)">
<circle cx="107.984" cy="107.719" r="8.39774" fill="white"/>
</g>
<g opacity="0.5" filter="url(#filter8_f_215_347)">
<circle cx="50.132" cy="263.544" r="5.13195" fill="white"/>
</g>
<g opacity="0.5" filter="url(#filter9_f_215_347)">
<circle cx="133.586" cy="512.853" r="6.53157" fill="white"/>
</g>
<g opacity="0.5" filter="url(#filter10_f_215_347)">
<circle cx="91.132" cy="435.407" r="5.13195" fill="white"/>
</g>
<g opacity="0.5" filter="url(#filter11_f_215_347)">
<circle cx="153.321" cy="581.316" r="6.82495" transform="rotate(-7.49818 153.321 581.316)" fill="white"/>
</g>
<g opacity="0.5" filter="url(#filter12_f_215_347)">
<circle cx="355.296" cy="555.12" r="6.82495" transform="rotate(-1.39809 355.296 555.12)" fill="white"/>
</g>
<g opacity="0.5" filter="url(#filter13_f_215_347)">
<circle cx="254.532" cy="510.807" r="6.53157" fill="white"/>
</g>
<g opacity="0.5" filter="url(#filter14_f_215_347)">
<circle cx="48.4184" cy="547.961" r="6.53157" transform="rotate(-6.10009 48.4184 547.961)" fill="white"/>
</g>
<g opacity="0.5" filter="url(#filter15_f_215_347)">
<circle cx="-2.0254" cy="475.466" r="5.13195" transform="rotate(-6.10009 -2.0254 475.466)" fill="white"/>
</g>
<g opacity="0.5" filter="url(#filter16_f_215_347)">
<circle cx="339.191" cy="52.3866" r="5.13195" fill="white"/>
</g>
<g opacity="0.5" filter="url(#filter17_f_215_347)">
<circle cx="105.452" cy="41.1896" r="5.13195" fill="white"/>
</g>
<g opacity="0.5" filter="url(#filter18_f_215_347)">
<circle cx="201.094" cy="8.53157" r="6.53157" fill="white"/>
</g>
<g opacity="0.5" filter="url(#filter19_f_215_347)">
<circle cx="314.423" cy="437.141" r="6.53157" fill="white"/>
</g>
<g opacity="0.5" filter="url(#filter20_f_215_347)">
<circle cx="279.213" cy="78.4884" r="5.30829" transform="rotate(79.1444 279.213 78.4884)" fill="white"/>
</g>
<g opacity="0.5" filter="url(#filter21_f_215_347)">
<circle cx="220.566" cy="591.315" r="2.56598" fill="white"/>
</g>
<g opacity="0.5" filter="url(#filter22_f_215_347)">
<circle cx="301.566" cy="583.841" r="2.56598" fill="white"/>
</g>
<g opacity="0.5" filter="url(#filter23_f_215_347)">
<circle cx="16.566" cy="564.841" r="2.56598" fill="white"/>
</g>
<g opacity="0.5" filter="url(#filter24_f_215_347)">
<circle cx="246.566" cy="537.841" r="2.56598" fill="white"/>
</g>
<g opacity="0.5" filter="url(#filter25_f_215_347)">
<circle cx="320.566" cy="550.841" r="2.56598" fill="white"/>
</g>
<g opacity="0.5" filter="url(#filter26_f_215_347)">
<circle cx="97.566" cy="525.841" r="2.56598" fill="white"/>
</g>
<g opacity="0.5" filter="url(#filter27_f_215_347)">
<circle cx="76.566" cy="585.841" r="2.56598" fill="white"/>
</g>
<defs>
<filter id="filter0_d_215_347" x="10" y="18.2754" width="338.16" height="513" filterUnits="userSpaceOnUse" color-interpolation-filters="sRGB">
<feFlood flood-opacity="0" result="BackgroundImageFix"/>
<feColorMatrix in="SourceAlpha" type="matrix" values="0 0 0 0 0 0 0 0 0 0 0 0 0 0 0 0 0 0 127 0" result="hardAlpha"/>
<feOffset dy="4"/>
<feGaussianBlur stdDeviation="2"/>
<feComposite in2="hardAlpha" operator="out"/>
<feColorMatrix type="matrix" values="0 0 0 0 0 0 0 0 0 0 0 0 0 0 0 0 0 0 0.25 0"/>
<feBlend mode="normal" in2="BackgroundImageFix" result="effect1_dropShadow_215_347"/>
<feBlend mode="normal" in="SourceGraphic" in2="effect1_dropShadow_215_347" result="shape"/>
</filter>
<filter id="filter1_bf_215_347" x="-68" y="431.275" width="493" height="228" filterUnits="userSpaceOnUse" color-interpolation-filters="sRGB">
<feFlood flood-opacity="0" result="BackgroundImageFix"/>
<feGaussianBlur in="BackgroundImageFix" stdDeviation="2"/>
<feComposite in2="SourceAlpha" operator="in" result="effect1_backgroundBlur_215_347"/>
<feBlend mode="normal" in="SourceGraphic" in2="effect1_backgroundBlur_215_347" result="shape"/>
<feGaussianBlur stdDeviation="25" result="effect2_foregroundBlur_215_347"/>
</filter>
<filter id="filter2_f_215_347" x="220.487" y="101.723" width="10.5939" height="10.5939" filterUnits="userSpaceOnUse" color-interpolation-filters="sRGB">
<feFlood flood-opacity="0" result="BackgroundImageFix"/>
<feBlend mode="normal" in="SourceGraphic" in2="BackgroundImageFix" result="shape"/>
<feGaussianBlur stdDeviation="0.432404" result="effect1_foregroundBlur_215_347"/>
</filter>
<filter id="filter3_f_215_347" x="185.194" y="377.146" width="16.3134" height="16.3134" filterUnits="userSpaceOnUse" color-interpolation-filters="sRGB">
<feFlood flood-opacity="0" result="BackgroundImageFix"/>
<feBlend mode="normal" in="SourceGraphic" in2="BackgroundImageFix" result="shape"/>
<feGaussianBlur stdDeviation="0.665849" result="effect1_foregroundBlur_215_347"/>
</filter>
<filter id="filter4_f_215_347" x="84.7802" y="333.184" width="15.612" height="15.6121" filterUnits="userSpaceOnUse" color-interpolation-filters="sRGB">
<feFlood flood-opacity="0" result="BackgroundImageFix"/>
<feBlend mode="normal" in="SourceGraphic" in2="BackgroundImageFix" result="shape"/>
<feGaussianBlur stdDeviation="0.637227" result="effect1_foregroundBlur_215_347"/>
</filter>
<filter id="filter5_f_215_347" x="52.8978" y="246.248" width="6.13331" height="6.13331" filterUnits="userSpaceOnUse" color-interpolation-filters="sRGB">
<feFlood flood-opacity="0" result="BackgroundImageFix"/>
<feBlend mode="normal" in="SourceGraphic" in2="BackgroundImageFix" result="shape"/>
<feGaussianBlur stdDeviation="0.250339" result="effect1_foregroundBlur_215_347"/>
</filter>
<filter id="filter6_f_215_347" x="142.905" y="22.274" width="12.2666" height="12.2666" filterUnits="userSpaceOnUse" color-interpolation-filters="sRGB">
<feFlood flood-opacity="0" result="BackgroundImageFix"/>
<feBlend mode="normal" in="SourceGraphic" in2="BackgroundImageFix" result="shape"/>
<feGaussianBlur stdDeviation="0.500678" result="effect1_foregroundBlur_215_347"/>
</filter>
<filter id="filter7_f_215_347" x="97.9474" y="97.683" width="20.0727" height="20.0726" filterUnits="userSpaceOnUse" color-interpolation-filters="sRGB">
<feFlood flood-opacity="0" result="BackgroundImageFix"/>
<feBlend mode="normal" in="SourceGraphic" in2="BackgroundImageFix" result="shape"/>
<feGaussianBlur stdDeviation="0.819291" result="effect1_foregroundBlur_215_347"/>
</filter>
<filter id="filter8_f_215_347" x="43.9986" y="257.411" width="12.2666" height="12.2666" filterUnits="userSpaceOnUse" color-interpolation-filters="sRGB">
<feFlood flood-opacity="0" result="BackgroundImageFix"/>
<feBlend mode="normal" in="SourceGraphic" in2="BackgroundImageFix" result="shape"/>
<feGaussianBlur stdDeviation="0.500678" result="effect1_foregroundBlur_215_347"/>
</filter>
<filter id="filter9_f_215_347" x="125.78" y="505.047" width="15.612" height="15.612" filterUnits="userSpaceOnUse" color-interpolation-filters="sRGB">
<feFlood flood-opacity="0" result="BackgroundImageFix"/>
<feBlend mode="normal" in="SourceGraphic" in2="BackgroundImageFix" result="shape"/>
<feGaussianBlur stdDeviation="0.637227" result="effect1_foregroundBlur_215_347"/>
</filter>
<filter id="filter10_f_215_347" x="84.9986" y="429.274" width="12.2666" height="12.2666" filterUnits="userSpaceOnUse" color-interpolation-filters="sRGB">
<feFlood flood-opacity="0" result="BackgroundImageFix"/>
<feBlend mode="normal" in="SourceGraphic" in2="BackgroundImageFix" result="shape"/>
<feGaussianBlur stdDeviation="0.500678" result="effect1_foregroundBlur_215_347"/>
</filter>
<filter id="filter11_f_215_347" x="145.164" y="573.158" width="16.3148" height="16.3148" filterUnits="userSpaceOnUse" color-interpolation-filters="sRGB">
<feFlood flood-opacity="0" result="BackgroundImageFix"/>
<feBlend mode="normal" in="SourceGraphic" in2="BackgroundImageFix" result="shape"/>
<feGaussianBlur stdDeviation="0.665849" result="effect1_foregroundBlur_215_347"/>
</filter>
<filter id="filter12_f_215_347" x="347.139" y="546.963" width="16.3134" height="16.3134" filterUnits="userSpaceOnUse" color-interpolation-filters="sRGB">
<feFlood flood-opacity="0" result="BackgroundImageFix"/>
<feBlend mode="normal" in="SourceGraphic" in2="BackgroundImageFix" result="shape"/>
<feGaussianBlur stdDeviation="0.665849" result="effect1_foregroundBlur_215_347"/>
</filter>
<filter id="filter13_f_215_347" x="246.726" y="503.001" width="15.612" height="15.612" filterUnits="userSpaceOnUse" color-interpolation-filters="sRGB">
<feFlood flood-opacity="0" result="BackgroundImageFix"/>
<feBlend mode="normal" in="SourceGraphic" in2="BackgroundImageFix" result="shape"/>
<feGaussianBlur stdDeviation="0.637227" result="effect1_foregroundBlur_215_347"/>
</filter>
<filter id="filter14_f_215_347" x="40.6119" y="540.155" width="15.6131" height="15.6131" filterUnits="userSpaceOnUse" color-interpolation-filters="sRGB">
<feFlood flood-opacity="0" result="BackgroundImageFix"/>
<feBlend mode="normal" in="SourceGraphic" in2="BackgroundImageFix" result="shape"/>
<feGaussianBlur stdDeviation="0.637227" result="effect1_foregroundBlur_215_347"/>
</filter>
<filter id="filter15_f_215_347" x="-8.15913" y="469.332" width="12.2675" height="12.2675" filterUnits="userSpaceOnUse" color-interpolation-filters="sRGB">
<feFlood flood-opacity="0" result="BackgroundImageFix"/>
<feBlend mode="normal" in="SourceGraphic" in2="BackgroundImageFix" result="shape"/>
<feGaussianBlur stdDeviation="0.500678" result="effect1_foregroundBlur_215_347"/>
</filter>
<filter id="filter16_f_215_347" x="333.057" y="46.2533" width="12.2666" height="12.2666" filterUnits="userSpaceOnUse" color-interpolation-filters="sRGB">
<feFlood flood-opacity="0" result="BackgroundImageFix"/>
<feBlend mode="normal" in="SourceGraphic" in2="BackgroundImageFix" result="shape"/>
<feGaussianBlur stdDeviation="0.500678" result="effect1_foregroundBlur_215_347"/>
</filter>
<filter id="filter17_f_215_347" x="99.319" y="35.0563" width="12.2666" height="12.2666" filterUnits="userSpaceOnUse" color-interpolation-filters="sRGB">
<feFlood flood-opacity="0" result="BackgroundImageFix"/>
<feBlend mode="normal" in="SourceGraphic" in2="BackgroundImageFix" result="shape"/>
<feGaussianBlur stdDeviation="0.500678" result="effect1_foregroundBlur_215_347"/>
</filter>
<filter id="filter18_f_215_347" x="193.288" y="0.725547" width="15.612" height="15.6121" filterUnits="userSpaceOnUse" color-interpolation-filters="sRGB">
<feFlood flood-opacity="0" result="BackgroundImageFix"/>
<feBlend mode="normal" in="SourceGraphic" in2="BackgroundImageFix" result="shape"/>
<feGaussianBlur stdDeviation="0.637227" result="effect1_foregroundBlur_215_347"/>
</filter>
<filter id="filter19_f_215_347" x="306.617" y="429.335" width="15.612" height="15.612" filterUnits="userSpaceOnUse" color-interpolation-filters="sRGB">
<feFlood flood-opacity="0" result="BackgroundImageFix"/>
<feBlend mode="normal" in="SourceGraphic" in2="BackgroundImageFix" result="shape"/>
<feGaussianBlur stdDeviation="0.637227" result="effect1_foregroundBlur_215_347"/>
</filter>
<filter id="filter20_f_215_347" x="272.868" y="72.1434" width="12.6901" height="12.6901" filterUnits="userSpaceOnUse" color-interpolation-filters="sRGB">
<feFlood flood-opacity="0" result="BackgroundImageFix"/>
<feBlend mode="normal" in="SourceGraphic" in2="BackgroundImageFix" result="shape"/>
<feGaussianBlur stdDeviation="0.517882" result="effect1_foregroundBlur_215_347"/>
</filter>
<filter id="filter21_f_215_347" x="217.499" y="588.248" width="6.13331" height="6.13331" filterUnits="userSpaceOnUse" color-interpolation-filters="sRGB">
<feFlood flood-opacity="0" result="BackgroundImageFix"/>
<feBlend mode="normal" in="SourceGraphic" in2="BackgroundImageFix" result="shape"/>
<feGaussianBlur stdDeviation="0.250339" result="effect1_foregroundBlur_215_347"/>
</filter>
<filter id="filter22_f_215_347" x="298.499" y="580.775" width="6.13331" height="6.13331" filterUnits="userSpaceOnUse" color-interpolation-filters="sRGB">
<feFlood flood-opacity="0" result="BackgroundImageFix"/>
<feBlend mode="normal" in="SourceGraphic" in2="BackgroundImageFix" result="shape"/>
<feGaussianBlur stdDeviation="0.250339" result="effect1_foregroundBlur_215_347"/>
</filter>
<filter id="filter23_f_215_347" x="13.4993" y="561.775" width="6.13331" height="6.13331" filterUnits="userSpaceOnUse" color-interpolation-filters="sRGB">
<feFlood flood-opacity="0" result="BackgroundImageFix"/>
<feBlend mode="normal" in="SourceGraphic" in2="BackgroundImageFix" result="shape"/>
<feGaussianBlur stdDeviation="0.250339" result="effect1_foregroundBlur_215_347"/>
</filter>
<filter id="filter24_f_215_347" x="243.499" y="534.775" width="6.13331" height="6.13331" filterUnits="userSpaceOnUse" color-interpolation-filters="sRGB">
<feFlood flood-opacity="0" result="BackgroundImageFix"/>
<feBlend mode="normal" in="SourceGraphic" in2="BackgroundImageFix" result="shape"/>
<feGaussianBlur stdDeviation="0.250339" result="effect1_foregroundBlur_215_347"/>
</filter>
<filter id="filter25_f_215_347" x="317.499" y="547.775" width="6.13331" height="6.13331" filterUnits="userSpaceOnUse" color-interpolation-filters="sRGB">
<feFlood flood-opacity="0" result="BackgroundImageFix"/>
<feBlend mode="normal" in="SourceGraphic" in2="BackgroundImageFix" result="shape"/>
<feGaussianBlur stdDeviation="0.250339" result="effect1_foregroundBlur_215_347"/>
</filter>
<filter id="filter26_f_215_347" x="94.4993" y="522.775" width="6.13331" height="6.13331" filterUnits="userSpaceOnUse" color-interpolation-filters="sRGB">
<feFlood flood-opacity="0" result="BackgroundImageFix"/>
<feBlend mode="normal" in="SourceGraphic" in2="BackgroundImageFix" result="shape"/>
<feGaussianBlur stdDeviation="0.250339" result="effect1_foregroundBlur_215_347"/>
</filter>
<filter id="filter27_f_215_347" x="73.4993" y="582.775" width="6.13331" height="6.13331" filterUnits="userSpaceOnUse" color-interpolation-filters="sRGB">
<feFlood flood-opacity="0" result="BackgroundImageFix"/>
<feBlend mode="normal" in="SourceGraphic" in2="BackgroundImageFix" result="shape"/>
<feGaussianBlur stdDeviation="0.250339" result="effect1_foregroundBlur_215_347"/>
</filter>
<linearGradient id="paint0_linear_215_347" x1="178.5" y1="481.275" x2="178.5" y2="609.275" gradientUnits="userSpaceOnUse">
<stop stop-color="white"/>
<stop offset="1" stop-color="#F3F3F3"/>
</linearGradient>
</defs>
</svg>
